<svg xmlns="http://www.w3.org/2000/svg" viewBox="0 0 32 32" fill="none" focusable="false"><path fill-rule="evenodd" clip-rule="evenodd" d="M31.3807 27.9992H16.6629C16.4386 27.9992 16.2621 27.9319 16.1384 27.7989C15.9685 27.6169 15.9693 27.3826 15.971 27.3352C15.9718 27.1757 16.0353 27.0311 16.159 26.9056C16.2852 26.7793 16.4419 26.7153 16.6258 26.7153H30.7614V12.1192C30.7614 11.6215 30.6236 11.2459 30.3399 10.9708C30.0546 10.6941 29.6744 10.5595 29.178 10.5595H7.31445V25.2262C7.31445 25.7181 7.43898 26.0937 7.68555 26.3422C7.93213 26.5907 8.31642 26.7161 8.82771 26.7161H11.7297C11.9144 26.7161 12.0711 26.7801 12.1956 26.9056C12.3202 27.0311 12.3837 27.1773 12.3837 27.3402C12.3837 27.5272 12.3202 27.6851 12.1948 27.8105C12.0711 27.936 11.9144 28 11.7289 28H8.82689C8.01707 28 7.34332 27.7474 6.8246 27.2496C6.30341 26.7494 6.03952 26.0688 6.03952 25.227V24.9827C5.51503 24.996 5.03095 24.8722 4.59883 24.6121C3.98033 24.2415 3.57294 23.6365 3.38739 22.8155L0.0145094 7.87047C-0.0209512 7.71258 0.00873675 7.55553 0.101924 7.40512C0.196761 7.25388 0.324584 7.15915 0.48127 7.12342L22.438 2.08937C23.2511 1.90324 23.9793 2.00794 24.6003 2.40265C25.2221 2.79653 25.6311 3.41229 25.8158 4.23163L26.9547 9.27564H29.178C30.0126 9.27564 30.6987 9.54072 31.2174 10.0642C31.7369 10.5878 32 11.2791 32 12.1192V27.3402C32 27.5272 31.9365 27.6851 31.8112 27.8105C31.6875 27.9352 31.5423 27.9992 31.3807 27.9992ZM2.64272 13.7263L4.63016 22.5297C4.7382 23.01 4.94271 23.3474 5.23794 23.5343C5.44988 23.6681 5.71872 23.7246 6.04034 23.703V12.9477L2.64272 13.7263ZM22.057 9.27564H25.6839L25.5049 8.48539L22.057 9.27564ZM1.4016 8.22862L2.34254 12.3968L6.04034 11.5492V9.90054C6.04034 9.7385 6.10384 9.59225 6.22837 9.46594C6.35454 9.33963 6.49968 9.27564 6.65967 9.27564H15.9561L25.2056 7.155L24.6077 4.50834C24.498 4.02305 24.2811 3.68734 23.9438 3.48292C23.6041 3.27684 23.2041 3.2303 22.72 3.34165L1.4016 8.22862ZM9.18802 23.5165C9.31255 23.642 9.46923 23.706 9.65396 23.706C9.81394 23.706 9.95909 23.642 10.0853 23.5165C10.2098 23.3902 10.2733 23.2323 10.2733 23.047V22.6241C10.2733 22.4612 10.2098 22.3158 10.0853 22.1895C9.96074 22.064 9.81559 22 9.65396 22C9.46923 22 9.31255 22.064 9.18802 22.1895C9.0635 22.3149 9 22.4612 9 22.6241V23.047C9 23.2323 9.0635 23.3911 9.18802 23.5165ZM10.7024 23.5165C10.827 23.642 10.9836 23.706 11.1684 23.706C11.3292 23.706 11.4735 23.642 11.5997 23.5165C11.7242 23.3902 11.7877 23.2323 11.7877 23.047V22.6241C11.7877 22.4612 11.7242 22.3158 11.5997 22.1895C11.4751 22.064 11.33 22 11.1684 22C10.9836 22 10.827 22.064 10.7024 22.1895C10.5779 22.3149 10.5144 22.4612 10.5144 22.6241V23.047C10.5144 23.2323 10.5779 23.3911 10.7024 23.5165ZM12.6828 23.706C12.498 23.706 12.3414 23.642 12.2168 23.5165C12.0923 23.3911 12.0288 23.2323 12.0288 23.047V22.6241C12.0288 22.4612 12.0923 22.3141 12.2177 22.1895C12.3414 22.064 12.498 22 12.6836 22C12.8452 22 12.9904 22.064 13.1149 22.1895C13.2394 22.3158 13.3029 22.4612 13.3029 22.6241V23.047C13.3029 23.2323 13.2394 23.3902 13.1149 23.5165C12.9887 23.642 12.8436 23.706 12.6828 23.706ZM13.6741 23.5165C13.7986 23.642 13.9553 23.706 14.14 23.706C14.3 23.706 14.4452 23.642 14.5722 23.5165C14.6967 23.3902 14.7602 23.2323 14.7602 23.047V22.6241C14.7602 22.462 14.6967 22.3158 14.5722 22.1895C14.4476 22.064 14.3025 22 14.1409 22C13.9553 22 13.7986 22.064 13.6749 22.1895C13.5496 22.3149 13.4861 22.4612 13.4861 22.6241V23.047C13.4861 23.2323 13.5496 23.3911 13.6741 23.5165ZM16.5973 23.706C16.4126 23.706 16.2559 23.642 16.1314 23.5165C16.0069 23.3911 15.9434 23.2323 15.9434 23.047V22.6241C15.9434 22.4612 16.0069 22.3149 16.1314 22.1895C16.2559 22.064 16.4126 22 16.5973 22C16.759 22 16.9041 22.064 17.0286 22.1895C17.1531 22.3158 17.2166 22.4612 17.2166 22.6241V23.047C17.2166 23.2323 17.1531 23.3902 17.0286 23.5165C16.9024 23.642 16.7573 23.706 16.5973 23.706ZM17.6458 23.5165C17.7703 23.642 17.927 23.706 18.1117 23.706C18.2725 23.706 18.4177 23.642 18.543 23.5165C18.6675 23.3902 18.731 23.2323 18.731 23.047V22.6241C18.731 22.4612 18.6675 22.3158 18.543 22.1895C18.4185 22.064 18.2734 22 18.1117 22C17.927 22 17.7703 22.064 17.6458 22.1895C17.5213 22.3149 17.4578 22.4612 17.4578 22.6241V23.047C17.4578 23.2323 17.5213 23.3911 17.6458 23.5165ZM19.6261 23.706C19.4414 23.706 19.2847 23.642 19.1602 23.5165C19.0357 23.3911 18.9722 23.2323 18.9722 23.047V22.6241C18.9722 22.4612 19.0357 22.3141 19.161 22.1895C19.2847 22.064 19.4414 22 19.627 22C19.7886 22 19.9337 22.064 20.0583 22.1895C20.1828 22.3158 20.2463 22.4612 20.2463 22.6241V23.047C20.2463 23.2323 20.1828 23.3902 20.0583 23.5165C19.9321 23.642 19.7869 23.706 19.6261 23.706ZM20.6182 23.5165C20.7427 23.642 20.8994 23.706 21.0841 23.706C21.2449 23.706 21.3893 23.642 21.5163 23.5165C21.6408 23.3902 21.7043 23.2323 21.7043 23.047V22.6241C21.7043 22.462 21.6408 22.3158 21.5163 22.1895C21.3917 22.064 21.2466 22 21.085 22C20.8994 22 20.7427 22.064 20.619 22.1895C20.4937 22.3149 20.4302 22.4612 20.4302 22.6241V23.047C20.4302 23.2323 20.4937 23.3911 20.6182 23.5165ZM24.4836 25.6011H27.7154C28.5335 25.6011 29.199 24.9305 29.199 24.1062V22.4949C29.199 21.6706 28.5335 21 27.7154 21H24.4836C23.6655 21 23 21.6706 23 22.4949V24.1062C23 24.9305 23.6655 25.6011 24.4836 25.6011ZM24.204 22.4949C24.204 22.3395 24.3294 22.2132 24.4836 22.2132H27.7154C27.8697 22.2132 27.995 22.3395 27.995 22.4949V24.1062C27.995 24.2616 27.8697 24.3879 27.7154 24.3879H24.4836C24.3294 24.3879 24.204 24.2616 24.204 24.1062V22.4949Z" fill="currentColor"></path></svg>