<svg xmlns="http://www.w3.org/2000/svg" width="320" height="299" viewBox="0 0 320 299" fill="none"><path fill-rule="evenodd" clip-rule="evenodd" d="M172.476 25.0966C173.498 25.4101 174.585 25.5792 175.712 25.5792C181.683 25.5792 186.523 20.839 186.523 14.9916C186.523 9.14432 181.683 4.40413 175.712 4.40413C171.372 4.40413 167.629 6.9091 165.908 10.5234C164.264 8.45335 161.697 7.12164 158.811 7.12164C157.859 7.12164 156.942 7.26664 156.081 7.53532C154.163 5.47483 151.401 4.18176 148.33 4.18176C143.069 4.18176 138.714 7.97636 137.961 12.9231C137.776 12.8864 137.584 12.8672 137.388 12.8672C135.921 12.8672 134.71 13.9397 134.528 15.3274H122.104C119.285 15.3274 117 17.6125 117 20.4312C117 23.2499 119.285 25.5349 122.104 25.5349H159.772C160.034 25.5632 160.3 25.5777 160.57 25.5777C160.839 25.5777 161.106 25.5632 161.367 25.5349H169.539C170.561 25.5349 171.547 25.3816 172.476 25.0966Z" fill="#EEEDF9"/><path fill-rule="evenodd" clip-rule="evenodd" d="M235.591 236.435C236.35 236.675 237.161 236.805 238.002 236.805C242.332 236.805 245.842 233.367 245.842 229.127C245.842 224.886 242.332 221.449 238.002 221.449C234.854 221.449 232.139 223.265 230.892 225.887C229.699 224.385 227.837 223.419 225.745 223.419C225.054 223.419 224.389 223.525 223.765 223.719C222.374 222.225 220.371 221.287 218.144 221.287C214.329 221.287 211.17 224.039 210.625 227.627C210.49 227.6 210.351 227.586 210.209 227.586C209.145 227.586 208.267 228.364 208.135 229.371H199.125C197.081 229.371 195.423 231.028 195.423 233.072C195.423 235.116 197.08 236.773 199.125 236.773H226.442C226.632 236.793 226.825 236.804 227.02 236.804C227.216 236.804 227.408 236.793 227.598 236.773H233.374C234.146 236.773 234.891 236.655 235.591 236.435Z" fill="#EEEDF9"/><path fill-rule="evenodd" clip-rule="evenodd" d="M313.388 189.625C313.484 188.971 313.534 188.302 313.534 187.621C313.534 179.933 307.17 173.701 299.319 173.701C293.321 173.701 288.19 177.34 286.103 182.487C284.244 180.724 281.71 179.639 278.918 179.639C275.241 179.639 272.013 181.521 270.181 184.354C268.287 182.219 265.494 180.869 262.38 180.869C258.37 180.869 254.894 183.106 253.181 186.375C252.423 185.471 251.273 184.894 249.985 184.894C247.809 184.894 246.026 186.541 245.864 188.632H219.882C216.292 188.632 213.381 191.542 213.381 195.132C213.381 198.722 216.292 201.632 219.882 201.632H303.388C308.911 201.632 313.388 197.155 313.388 191.632V189.625Z" fill="#EEEDF9"/><path fill-rule="evenodd" clip-rule="evenodd" d="M284.282 73.6536C283.055 73.881 281.789 74 280.493 74C279.198 74 277.931 73.881 276.704 73.6536H199.466C194.79 73.6536 191 69.8633 191 65.1878C191 60.5123 194.79 56.722 199.466 56.722H204.488C204.723 53.9648 207.083 51.7989 209.959 51.7989C211.564 51.7989 213.008 52.4733 214.012 53.5486C216.288 49.2063 220.906 46.2352 226.232 46.2352C230.37 46.2352 234.079 48.0279 236.596 50.8634C239.029 47.0999 243.318 44.6012 248.202 44.6012C253.668 44.6012 258.388 47.7301 260.596 52.2587C261.785 42.639 270.24 35.1818 280.493 35.1818C291.561 35.1818 300.534 43.8715 300.534 54.5909C300.534 61.1179 297.207 66.8924 292.106 70.4109C290.278 72.404 287.653 73.6536 284.735 73.6536H284.282Z" fill="#EEEDF9"/><path fill-rule="evenodd" clip-rule="evenodd" d="M319.819 12.6686C319.938 12.0361 320 11.3842 320 10.7181C320 4.79868 315.1 0 309.055 0C304.437 0 300.486 2.80196 298.879 6.76489C297.448 5.40756 295.497 4.57224 293.347 4.57224C290.516 4.57224 288.03 6.02058 286.62 8.20195C285.162 6.55843 283.011 5.51933 280.613 5.51933C277.526 5.51933 274.849 7.24164 273.531 9.75867C272.947 9.06262 272.062 8.61861 271.07 8.61861C269.395 8.61861 268.022 9.88661 267.897 11.4961H247.892C245.128 11.4961 242.887 13.7369 242.887 16.5011C242.887 19.2652 245.128 21.506 247.892 21.506H309.887C315.013 21.506 319.239 17.6403 319.819 12.6686Z" fill="#EEEDF9"/><path fill-rule="evenodd" clip-rule="evenodd" d="M90.7128 39.1796C90.8002 38.5858 90.8455 37.9785 90.8455 37.3609C90.8455 30.3873 85.0729 24.7341 77.952 24.7341C72.5107 24.7341 67.8567 28.0349 65.9639 32.7035C64.2772 31.1045 61.979 30.1204 59.446 30.1204C56.1107 30.1204 53.1824 31.8267 51.5214 34.3965C49.8031 32.4601 47.2699 31.2359 44.4447 31.2359C40.8077 31.2359 37.6545 33.2648 36.1011 36.2299C35.4136 35.4099 34.3704 34.8869 33.2024 34.8869C31.2286 34.8869 29.611 36.3809 29.4645 38.2772H5.89616C2.63977 38.2772 -6.10352e-05 40.917 -6.10352e-05 44.1734C-6.10352e-05 47.4298 2.63976 50.0696 5.89616 50.0696H80.7128C86.2356 50.0696 90.7128 45.5925 90.7128 40.0696V39.1796Z" fill="#EEEDF9"/><path d="M73.9438 284.392H179.578C180.162 284.392 180.634 283.928 180.634 283.357V196.46C180.634 195.888 180.162 195.425 179.578 195.425H153.142C152.859 195.425 152.588 195.536 152.39 195.734L73.1912 274.485C72.9966 274.678 72.8875 274.939 72.8875 275.21V283.357C72.8875 283.928 73.3605 284.392 73.9438 284.392Z" fill="#DFE2F6"/><path fill-rule="evenodd" clip-rule="evenodd" d="M181.691 196.46C181.691 195.317 180.745 194.391 179.578 194.391H153.142C152.577 194.391 152.034 194.613 151.637 195.008L152.332 195.678L151.637 195.008L72.4387 273.759C72.0495 274.146 71.8313 274.667 71.8313 275.21V283.357C71.8313 284.5 72.7772 285.426 73.944 285.426H179.578C180.745 285.426 181.691 284.5 181.691 283.357V196.46ZM153.142 196.46H179.578V283.357H73.944V275.21L153.142 196.46Z" fill="#1B0088"/><path d="M101.409 284.392H203.874C205.041 284.392 205.987 283.465 205.987 282.323V197.494C205.987 196.352 205.041 195.425 203.874 195.425H179.217C178.647 195.425 178.102 195.65 177.704 196.05L99.8963 274.184C99.5115 274.57 99.2962 275.089 99.2962 275.628V282.323C99.2962 283.465 100.242 284.392 101.409 284.392Z" fill="#4658DF"/><path fill-rule="evenodd" clip-rule="evenodd" d="M203.874 196.46C204.457 196.46 204.93 196.923 204.93 197.494V282.323C204.93 282.894 204.457 283.357 203.874 283.357H101.409C100.825 283.357 100.352 282.894 100.352 282.323V275.628C100.352 275.358 100.46 275.099 100.652 274.906L178.461 196.772L177.704 196.05L178.461 196.772C178.659 196.572 178.932 196.46 179.217 196.46H203.874ZM207.043 197.494C207.043 195.78 205.624 194.391 203.874 194.391H179.217C178.363 194.391 177.544 194.728 176.948 195.327L99.1399 273.461C98.5627 274.041 98.2397 274.819 98.2397 275.628V282.323C98.2397 284.037 99.6585 285.426 101.409 285.426H203.874C205.624 285.426 207.043 284.037 207.043 282.323V197.494Z" fill="#1B0088"/><path d="M191.613 290.303C191.613 293.164 193.981 295.483 196.902 295.483C199.824 295.483 202.192 293.164 202.192 290.303C202.192 287.442 199.824 285.123 196.902 285.123C193.981 285.123 191.613 287.442 191.613 290.303Z" fill="#4658DF"/><path fill-rule="evenodd" clip-rule="evenodd" d="M196.902 286.157C199.24 286.157 201.136 288.014 201.136 290.303C201.136 292.593 199.24 294.449 196.902 294.449C194.564 294.449 192.669 292.593 192.669 290.303C192.669 288.014 194.564 286.157 196.902 286.157ZM203.248 290.303C203.248 286.871 200.407 284.088 196.902 284.088C193.398 284.088 190.556 286.871 190.556 290.303C190.556 293.736 193.398 296.518 196.902 296.518C200.407 296.518 203.248 293.736 203.248 290.303Z" fill="#1B0088"/><path d="M103.008 290.303C103.008 293.164 105.377 295.483 108.298 295.483C111.22 295.483 113.588 293.164 113.588 290.303C113.588 287.442 111.22 285.123 108.298 285.123C105.377 285.123 103.008 287.442 103.008 290.303Z" fill="#4658DF"/><path fill-rule="evenodd" clip-rule="evenodd" d="M108.298 286.157C110.636 286.157 112.531 288.014 112.531 290.303C112.531 292.593 110.636 294.449 108.298 294.449C105.96 294.449 104.064 292.593 104.064 290.303C104.064 288.014 105.96 286.157 108.298 286.157ZM114.644 290.303C114.644 286.871 111.803 284.088 108.298 284.088C104.793 284.088 101.952 286.871 101.952 290.303C101.952 293.736 104.793 296.518 108.298 296.518C111.803 296.518 114.644 293.736 114.644 290.303Z" fill="#1B0088"/><path d="M169.13 290.303C169.13 293.164 171.498 295.483 174.419 295.483C177.341 295.483 179.709 293.164 179.709 290.303C179.709 287.442 177.341 285.123 174.419 285.123C171.498 285.123 169.13 287.442 169.13 290.303Z" fill="#4658DF"/><path fill-rule="evenodd" clip-rule="evenodd" d="M174.419 286.157C176.757 286.157 178.653 288.014 178.653 290.303C178.653 292.593 176.757 294.449 174.419 294.449C172.081 294.449 170.186 292.593 170.186 290.303C170.186 288.014 172.081 286.157 174.419 286.157ZM180.765 290.303C180.765 286.871 177.924 284.088 174.419 284.088C170.914 284.088 168.073 286.871 168.073 290.303C168.073 293.736 170.914 296.518 174.419 296.518C177.924 296.518 180.765 293.736 180.765 290.303Z" fill="#1B0088"/><path fill-rule="evenodd" clip-rule="evenodd" d="M161.629 297.147C161.629 296.576 162.102 296.113 162.686 296.113L211.786 296.113C212.369 296.113 212.842 296.576 212.842 297.147C212.842 297.719 212.369 298.182 211.786 298.182L162.686 298.182C162.102 298.182 161.629 297.719 161.629 297.147Z" fill="#1B0088"/><path fill-rule="evenodd" clip-rule="evenodd" d="M132.875 296.113L146.303 296.113C146.887 296.113 147.36 296.576 147.36 297.147C147.36 297.719 146.887 298.182 146.303 298.182L132.875 298.182C132.291 298.182 131.818 297.719 131.818 297.147C131.818 296.576 132.291 296.113 132.875 296.113Z" fill="#1B0088"/><path fill-rule="evenodd" clip-rule="evenodd" d="M64.2125 296.113L123.368 296.113C123.951 296.113 124.424 296.576 124.424 297.147C124.424 297.719 123.951 298.182 123.368 298.182L64.2125 298.182C63.6291 298.182 63.1562 297.719 63.1562 297.147C63.1562 296.576 63.6291 296.113 64.2125 296.113Z" fill="#1B0088"/><path fill-rule="evenodd" clip-rule="evenodd" d="M219.497 297.147C219.497 296.576 219.97 296.113 220.553 296.113L245.103 296.113C245.687 296.113 246.16 296.576 246.16 297.147C246.16 297.719 245.687 298.182 245.103 298.182L220.553 298.182C219.97 298.182 219.497 297.719 219.497 297.147Z" fill="#1B0088"/><path d="M80.5267 290.303C80.5267 293.164 82.8951 295.483 85.8165 295.483C88.738 295.483 91.1063 293.164 91.1063 290.303C91.1063 287.442 88.738 285.123 85.8165 285.123C82.8951 285.123 80.5267 287.442 80.5267 290.303Z" fill="#4658DF"/><path fill-rule="evenodd" clip-rule="evenodd" d="M85.8164 286.157C88.1545 286.157 90.0499 288.014 90.0499 290.303C90.0499 292.593 88.1545 294.449 85.8164 294.449C83.4784 294.449 81.583 292.593 81.583 290.303C81.583 288.014 83.4784 286.157 85.8164 286.157ZM92.1625 290.303C92.1625 286.871 89.3213 284.088 85.8164 284.088C82.3116 284.088 79.4703 286.871 79.4703 290.303C79.4703 293.736 82.3116 296.518 85.8164 296.518C89.3213 296.518 92.1625 293.736 92.1625 290.303Z" fill="#1B0088"/><ellipse cx="172.06" cy="143.826" rx="5.26073" ry="5.15191" fill="#1B0088"/><path fill-rule="evenodd" clip-rule="evenodd" d="M234.251 146.258C234.251 147.362 233.355 148.258 232.251 148.258H215.415C213.855 148.258 212.896 146.55 213.707 145.218L230.542 117.564C231.594 115.837 234.251 116.583 234.251 118.604V146.258ZM269.317 168.968C270.422 168.968 271.317 168.073 271.317 166.968V150.258C271.317 149.153 270.422 148.258 269.317 148.258H259.88C258.776 148.258 257.88 147.362 257.88 146.258V86.7346C257.88 85.63 256.985 84.7346 255.88 84.7346H230.555C229.874 84.7346 229.24 85.0807 228.872 85.6532L201.174 128.749V118.222C201.174 99.7274 185.864 84.7346 166.979 84.7346C148.094 84.7346 132.784 99.7274 132.784 118.222V148.258H128.082C126.978 148.258 126.082 147.362 126.082 146.258V86.7348C126.082 85.6302 125.187 84.7348 124.082 84.7348H98.1523C97.4784 84.7348 96.8498 85.0742 96.4801 85.6377L54.2011 150.077C53.9873 150.403 53.8734 150.784 53.8734 151.174V166.969C53.8734 168.073 54.7688 168.969 55.8734 168.969H99.96C101.065 168.969 101.96 169.864 101.96 170.969V190.925C101.96 192.03 102.855 192.925 103.96 192.925H124.082C125.187 192.925 126.082 192.03 126.082 190.925V170.969C126.082 169.864 126.978 168.969 128.082 168.969H134.189C138.381 182.82 151.475 192.925 166.979 192.925C182.483 192.925 195.577 182.82 199.769 168.968H232.251C233.355 168.968 234.251 169.864 234.251 170.968V190.925C234.251 192.029 235.146 192.925 236.251 192.925H255.88C256.985 192.925 257.88 192.029 257.88 190.925V170.968C257.88 169.864 258.776 168.968 259.88 168.968H269.317ZM101.96 146.258C101.96 147.362 101.065 148.258 99.96 148.258H82.6968C81.1282 148.258 80.1702 146.534 80.9982 145.202L98.2613 117.425C99.3233 115.716 101.96 116.468 101.96 118.48V146.258Z" fill="#DFE2F6"/><path d="M192.966 119.572C192.966 105.574 181.379 94.2268 167.086 94.2268C152.792 94.2268 141.205 105.574 141.205 119.572V157.848C141.205 171.846 152.792 183.193 167.086 183.193C181.379 183.193 192.966 171.846 192.966 157.848V119.572Z" fill="#7F8DE4"/><path fill-rule="evenodd" clip-rule="evenodd" d="M194.022 119.572C194.022 105.003 181.962 93.1925 167.086 93.1925C152.209 93.1925 140.149 105.003 140.149 119.572V157.848C140.149 172.417 152.209 184.228 167.086 184.228C181.962 184.228 194.022 172.417 194.022 157.848V119.572ZM167.086 95.2615C180.796 95.2615 191.91 106.146 191.91 119.572V157.848C191.91 171.275 180.796 182.159 167.086 182.159C153.376 182.159 142.262 171.275 142.262 157.848V119.572C142.262 106.146 153.376 95.2615 167.086 95.2615Z" fill="#1B0088"/><mask id="mask0_403:53779" style="mask-type:alpha" maskUnits="userSpaceOnUse" x="144" y="99" width="40" height="80"><rect width="39.4843" height="78.8818" rx="19.7421" transform="matrix(-1 0 0 1 183.562 99.3885)" fill="white"/></mask><g mask="url(#mask0_403:53779)"><rect width="41.0636" height="85.0686" rx="20.5318" transform="matrix(-1 0 0 1 183.562 96.2951)" fill="white"/></g><path fill-rule="evenodd" clip-rule="evenodd" d="M101.856 208.843C101.559 208.863 101.26 208.874 100.958 208.874C100.656 208.874 100.356 208.863 100.06 208.843H50.049C46.9105 208.843 44.3663 206.299 44.3663 203.16C44.3663 200.022 46.9105 197.478 50.049 197.478H53.4201C53.5781 195.627 55.162 194.173 57.0927 194.173C58.1701 194.173 59.1396 194.626 59.8135 195.348C61.3408 192.433 64.4407 190.438 68.0161 190.438C70.7936 190.438 73.284 191.642 74.9733 193.545C76.6062 191.019 79.4852 189.341 82.7643 189.341C85.2544 189.341 87.5138 190.309 89.172 191.881C91.0329 187.291 95.6084 184.046 100.958 184.046C107.959 184.046 113.634 189.604 113.634 196.46C113.634 196.802 113.62 197.142 113.592 197.478H113.999V198.843C113.999 204.366 109.522 208.843 103.999 208.843H101.856Z" fill="#EEEDF9"/><path d="M73.9439 264.65V270.515C73.9439 271.437 75.0817 271.898 75.7472 271.247L152.86 195.737C153.058 195.543 153.17 195.28 153.17 195.005V189.635C153.17 188.715 152.035 188.253 151.369 188.901L74.2558 263.916C74.0562 264.11 73.9439 264.374 73.9439 264.65Z" fill="white"/><path fill-rule="evenodd" clip-rule="evenodd" d="M152.43 189.635C152.43 189.359 152.09 189.22 151.89 189.415L74.7771 264.429C74.7172 264.488 74.6835 264.567 74.6835 264.649V270.515C74.6835 270.791 75.0249 270.93 75.2245 270.734L152.338 195.224C152.397 195.166 152.43 195.087 152.43 195.005V189.635ZM150.848 188.387C151.981 187.285 153.909 188.071 153.909 189.635V195.005C153.909 195.471 153.72 195.919 153.383 196.249L76.2702 271.758C75.1389 272.866 73.2047 272.082 73.2047 270.515V264.649C73.2047 264.181 73.3955 263.732 73.7349 263.402L73.7349 263.402L150.848 188.387Z" fill="#1B0088"/><path d="M73.9439 283.357H98.9098V273.996L99.8243 273.012V264.736L167.43 196.46H159.997H154.154V202.184H147.888V208.356L141.405 208.428V215.193H135.212V221.438H129.188V227.162H123.876V232.886H118.033V238.611H112.19V244.335H106.162V250.059H100.352V256.303H94.0144V263.068H87.1482V269.833H79.7538V276.598H73.9439V283.357Z" fill="#A7B1E9"/><path d="M100.352 265.157V272.001C100.352 272.931 101.51 273.389 102.169 272.719L177.17 196.536C177.359 196.343 177.465 196.086 177.465 195.818V189.695C177.465 188.767 176.313 188.309 175.652 188.974L100.652 264.435C100.46 264.628 100.352 264.887 100.352 265.157Z" fill="white"/><path fill-rule="evenodd" clip-rule="evenodd" d="M176.726 189.695C176.726 189.417 176.38 189.279 176.182 189.479L101.182 264.94C101.124 264.998 101.092 265.076 101.092 265.157V272.001C101.092 272.28 101.439 272.417 101.637 272.216L176.637 196.033L177.17 196.536L176.637 196.033C176.694 195.976 176.726 195.898 176.726 195.818V189.695ZM175.122 188.469C176.246 187.338 178.205 188.117 178.205 189.695V195.818C178.205 196.273 178.025 196.711 177.702 197.039L102.702 273.221L102.172 272.722L102.702 273.221C101.58 274.36 99.6131 273.583 99.6131 272.001V265.157C99.6131 264.698 99.7957 264.258 100.122 263.93L175.122 188.469Z" fill="#1B0088"/></svg>