<svg xmlns="http://www.w3.org/2000/svg" viewBox="0 0 32 32" fill="none" focusable="false"><path fill="currentColor" d="M9.41037 16.2619C8.57019 16.4766 7.88872 16.5793 7.37528 16.5793C5.53622 16.5793 4.06124 15.8138 2.94101 14.2735V14.2268L0.177733 9.75516C0.000361711 9.48443 -0.0463285 9.18573 0.0470246 8.84966C0.224396 8.51359 0.467132 8.30822 0.765862 8.21486L2.84762 7.48668C3.06233 7.39333 3.27705 7.37465 3.5011 7.42133C3.72515 7.46801 3.93055 7.56136 4.10792 7.71072L6.18968 9.15774L7.81401 10.3339L12.3323 8.75633L6.49776 3.33246C6.22703 3.03373 6.1337 2.74435 6.22705 2.47362C6.2924 2.17489 6.48839 1.97885 6.81513 1.88549L6.86185 1.83883L9.8491 1.07333C10.2785 0.951968 10.652 0.980008 10.9787 1.16671L17.2147 4.47139C17.364 4.56475 17.4761 4.69544 17.5321 4.88215C17.5975 5.05952 17.5788 5.24624 17.4854 5.42361C17.3921 5.57298 17.2614 5.67564 17.0747 5.74098C16.8973 5.80633 16.7106 5.78767 16.5332 5.69432L10.3439 2.4363H10.2599L8.1781 2.97777L14.1434 8.54158C14.3208 8.71895 14.3861 8.94303 14.3208 9.22309C14.2554 9.46581 14.1061 9.63382 13.8727 9.71784L7.94472 11.7996C7.674 11.8649 7.45929 11.8276 7.30993 11.7063L5.36816 10.306L3.28641 8.859C3.2584 8.859 3.23974 8.84034 3.23974 8.81234L1.61541 9.40041L4.09858 13.4706C4.66803 14.2548 5.35885 14.7682 6.15236 15.0016C6.94586 15.2443 7.88874 15.2163 8.97164 14.9083L28.6785 8.08416C29.0986 7.93479 29.4719 7.7481 29.808 7.51472C30.1347 7.29067 30.3682 7.03863 30.4895 6.7679C30.6109 6.46917 30.6109 6.13309 30.4895 5.76902C30.4615 5.59165 30.3495 5.3956 30.1534 5.18089C29.9574 4.96618 29.6027 4.84478 29.0892 4.79811C28.5758 4.75143 27.8103 4.89148 26.7834 5.22755L21.5369 7.03861C21.3596 7.09462 21.1728 7.08529 20.9955 6.99194C20.8181 6.89859 20.6968 6.76789 20.6314 6.58118C20.5661 6.40381 20.5847 6.21709 20.6781 6.03972C20.7715 5.86235 20.9022 5.74098 21.0889 5.67563L26.3353 3.86458C27.7823 3.37914 28.9678 3.25782 29.8827 3.50054C30.7976 3.74326 31.4417 4.33134 31.8058 5.26487C32.0765 6.02103 32.0672 6.71189 31.7591 7.34669C31.339 8.22421 30.4615 8.915 29.1359 9.42844L9.42906 16.2526H9.41037V16.2619ZM18.587 31H0.728541C0.523164 31 0.345796 30.9346 0.205766 30.7946C0.0657362 30.6546 0.000359425 30.5052 0.000359425 30.3185C0.000359425 30.1038 0.0750716 29.9357 0.205766 29.7957C0.345796 29.665 0.513829 29.5904 0.728541 29.5904H18.587C18.7924 29.5904 18.9697 29.6557 19.1004 29.7957C19.2405 29.9357 19.3058 30.1038 19.3058 30.3185C19.3058 30.4959 19.2405 30.6546 19.1004 30.7946C18.9697 30.9346 18.8017 31 18.587 31Z"></path></svg>