<svg aria-hidden="true" width="128" height="128" viewBox="0 0 128 128" fill="none" xmlns="http://www.w3.org/2000/svg"><path d="M18.762 43.8878C18.12 40.5303 20.3213 37.2882 23.6788 36.6462L99.4376 22.161C102.758 21.5261 105.973 23.6726 106.66 26.9825L115.335 68.7839C116.034 72.1498 113.856 75.44 110.484 76.1116L34.1799 91.3133C30.8092 91.9848 27.5369 89.7814 26.8915 86.4056L18.762 43.8878Z" fill="white"></path><path d="M22.7102 58.2703L20.9566 50.2335L106.573 33.7385L108.281 42.1568L22.7102 58.2703Z" fill="#1B0088" stroke="#1B0088" stroke-width="1.6"></path><rect x="12.7998" y="49.5625" width="91.665" height="58.2196" rx="4.95143" fill="white"></rect><path d="M95.4937 106.545L15.5966 52.041L13.4288 54.5184V96.9445C13.1811 106.359 17.6611 107.267 19.9321 106.545H95.4937Z" fill="#EEEDF9"></path><rect x="18.9932" y="56.373" width="16.1033" height="11.1484" rx="3.71357" fill="#CDD1F1"></rect><rect x="18.9932" y="78.0508" width="14.2452" height="5.57422" rx="1.23786" fill="#CDD1F1"></rect><rect x="18.9932" y="87.3438" width="30.3485" height="5.57422" rx="1.23786" fill="#CDD1F1"></rect><rect x="35.0967" y="78.0508" width="14.2452" height="5.57422" rx="1.23786" fill="#CDD1F1"></rect><rect x="51.2002" y="78.0508" width="14.2452" height="5.57422" rx="1.23786" fill="#CDD1F1"></rect><rect x="67.3032" y="78.0508" width="14.2452" height="5.57422" rx="1.23786" fill="#CDD1F1"></rect><rect x="13.5998" y="50.3625" width="90.065" height="56.6196" rx="4.15143" stroke="#1B0088" stroke-width="1.6"></rect><circle cx="77.2129" cy="61.9473" r="5.57422" fill="#CDD1F1"></circle><circle cx="85.2646" cy="61.9473" r="5.57422" fill="#EEEDF9"></circle><path fill-rule="evenodd" clip-rule="evenodd" d="M103.826 22.9839C102.981 22.3636 101.604 22.2431 98.7214 22.7889C87.4348 24.926 71.5495 27.8936 57.3492 30.5464C41.3812 33.5294 27.5438 36.1144 24.7719 36.673C21.4348 37.3455 20.065 38.6833 19.5039 39.9497C18.9163 41.2759 19.1061 42.7505 19.3619 43.9032L19.3671 43.9288L19.4624 44.4363C19.5439 44.8706 19.258 45.2887 18.8237 45.3702C18.3895 45.4517 17.9714 45.1658 17.8899 44.7315L17.797 44.2368C17.529 43.0246 17.236 41.1186 18.0411 39.3016C18.8755 37.4183 20.7843 35.8444 24.4558 35.1046C27.2361 34.5443 41.1063 31.9531 57.0976 28.9657C71.2927 26.3139 87.1591 23.3498 98.4237 21.2168L98.4237 21.2168C101.268 20.6783 103.311 20.621 104.772 21.6941C105.504 22.231 106.015 22.9966 106.42 23.9326C106.823 24.8626 107.144 26.0157 107.465 27.3832L107.468 27.3995L107.468 27.3995L113.426 55.4675C113.518 55.8997 113.242 56.3245 112.809 56.4162C112.377 56.5079 111.953 56.2319 111.861 55.7997L105.905 27.74C105.589 26.3932 105.294 25.3589 104.952 24.5684C104.612 23.7823 104.248 23.2936 103.826 22.9839Z" fill="#1B0088"></path><rect x="12.7998" y="49.5625" width="91.665" height="58.2196" rx="4.95143" fill="white"></rect><path d="M95.4937 106.545L15.5966 52.041L13.4288 54.5184V96.9445C13.1811 106.359 17.6611 107.267 19.9321 106.545H95.4937Z" fill="#EEEDF9"></path><rect x="18.9932" y="56.373" width="16.1033" height="11.1484" rx="3.71357" fill="#A7B1E9"></rect><rect x="18.9932" y="78.0508" width="14.2452" height="5.57422" rx="2.78711" fill="#A7B1E9"></rect><rect x="18.9932" y="87.3438" width="30.3485" height="5.57422" rx="2.78711" fill="#A7B1E9"></rect><rect x="35.0967" y="78.0508" width="14.2452" height="5.57422" rx="2.78711" fill="#A7B1E9"></rect><rect x="51.2002" y="78.0508" width="14.2452" height="5.57422" rx="2.78711" fill="#A7B1E9"></rect><rect x="67.3032" y="78.0508" width="14.2452" height="5.57422" rx="2.78711" fill="#A7B1E9"></rect><mask id="path-23-inside-1_1703_83780" fill="white"><path fill-rule="evenodd" clip-rule="evenodd" d="M99.5133 51.1625H17.7512C15.9003 51.1625 14.3998 52.663 14.3998 54.5139L14.3998 102.831C14.3998 104.682 15.9003 106.182 17.7512 106.182H99.5133C101.364 106.182 102.865 104.682 102.865 102.831V54.5139C102.865 52.663 101.364 51.1625 99.5133 51.1625ZM17.7512 49.5625C15.0166 49.5625 12.7998 51.7793 12.7998 54.5139L12.7998 102.831C12.7998 105.565 15.0166 107.782 17.7512 107.782H99.5133C102.248 107.782 104.465 105.565 104.465 102.831V54.5139C104.465 51.7793 102.248 49.5625 99.5133 49.5625H17.7512Z"></path></mask><path fill-rule="evenodd" clip-rule="evenodd" d="M99.5133 51.1625H17.7512C15.9003 51.1625 14.3998 52.663 14.3998 54.5139L14.3998 102.831C14.3998 104.682 15.9003 106.182 17.7512 106.182H99.5133C101.364 106.182 102.865 104.682 102.865 102.831V54.5139C102.865 52.663 101.364 51.1625 99.5133 51.1625ZM17.7512 49.5625C15.0166 49.5625 12.7998 51.7793 12.7998 54.5139L12.7998 102.831C12.7998 105.565 15.0166 107.782 17.7512 107.782H99.5133C102.248 107.782 104.465 105.565 104.465 102.831V54.5139C104.465 51.7793 102.248 49.5625 99.5133 49.5625H17.7512Z" fill="#1B0088"></path><path d="M17.7512 52.7625H99.5133V49.5625H17.7512V52.7625ZM15.9998 54.5139C15.9998 53.5466 16.7839 52.7625 17.7512 52.7625V49.5625C15.0166 49.5625 12.7998 51.7793 12.7998 54.5139H15.9998ZM15.9998 102.831L15.9998 54.5139H12.7998L12.7998 102.831H15.9998ZM17.7512 104.582C16.7839 104.582 15.9998 103.798 15.9998 102.831H12.7998C12.7998 105.565 15.0166 107.782 17.7512 107.782V104.582ZM99.5133 104.582H17.7512V107.782H99.5133V104.582ZM101.265 102.831C101.265 103.798 100.481 104.582 99.5133 104.582V107.782C102.248 107.782 104.465 105.565 104.465 102.831H101.265ZM101.265 54.5139V102.831H104.465V54.5139H101.265ZM99.5133 52.7625C100.481 52.7625 101.265 53.5466 101.265 54.5139H104.465C104.465 51.7793 102.248 49.5625 99.5133 49.5625V52.7625ZM14.3998 54.5139C14.3998 52.663 15.9003 51.1625 17.7512 51.1625V47.9625C14.133 47.9625 11.1998 50.8957 11.1998 54.5139H14.3998ZM14.3998 102.831L14.3998 54.5139H11.1998L11.1998 102.831H14.3998ZM17.7512 106.182C15.9003 106.182 14.3998 104.682 14.3998 102.831H11.1998C11.1998 106.449 14.133 109.382 17.7512 109.382V106.182ZM99.5133 106.182H17.7512V109.382H99.5133V106.182ZM102.865 102.831C102.865 104.682 101.364 106.182 99.5133 106.182V109.382C103.132 109.382 106.065 106.449 106.065 102.831H102.865ZM102.865 54.5139V102.831H106.065V54.5139H102.865ZM99.5133 51.1625C101.364 51.1625 102.865 52.663 102.865 54.5139H106.065C106.065 50.8957 103.132 47.9625 99.5133 47.9625V51.1625ZM17.7512 51.1625H99.5133V47.9625H17.7512V51.1625Z" fill="#1B0088" mask="url(#path-23-inside-1_1703_83780)"></path><circle cx="77.2129" cy="61.9473" r="5.57422" fill="#A7B1E9"></circle><circle cx="85.2646" cy="61.9473" r="5.57422" fill="#EEEDF9"></circle><path d="M115.2 81.6C115.2 91.3202 107.32 99.2 97.5995 99.2C87.8793 99.2 79.9995 91.3202 79.9995 81.6C79.9995 71.8798 87.8793 64 97.5995 64C107.32 64 115.2 71.8798 115.2 81.6Z" fill="#EEEDF9"></path><path fill-rule="evenodd" clip-rule="evenodd" d="M96.6971 63.2229C96.9962 63.2085 97.2971 63.2012 97.5997 63.2012C97.9023 63.2012 98.2032 63.2085 98.5023 63.2229C98.9436 63.2443 99.2841 63.6193 99.2627 64.0606C99.2414 64.5019 98.8663 64.8424 98.425 64.8211C98.1516 64.8079 97.8765 64.8012 97.5997 64.8012C97.3229 64.8012 97.0478 64.8079 96.7744 64.8211C96.3331 64.8424 95.958 64.5019 95.9367 64.0606C95.9154 63.6193 96.2558 63.2443 96.6971 63.2229ZM102.778 64.756C102.926 64.34 103.384 64.1235 103.8 64.2723C104.37 64.4762 104.927 64.7074 105.469 64.9642C105.868 65.1534 106.039 65.6305 105.849 66.0297C105.66 66.429 105.183 66.5993 104.784 66.4102C104.289 66.1757 103.781 65.9648 103.261 65.7788C102.845 65.6299 102.629 65.172 102.778 64.756ZM92.4218 64.756C92.5707 65.172 92.3541 65.6299 91.9382 65.7788C91.4183 65.9648 90.9103 66.1757 90.4156 66.4102C90.0163 66.5993 89.5392 66.429 89.3501 66.0297C89.1609 65.6305 89.3312 65.1534 89.7305 64.9642C90.2726 64.7074 90.8293 64.4762 91.3991 64.2723C91.815 64.1235 92.273 64.34 92.4218 64.756ZM108.827 68.0228C109.123 67.6956 109.629 67.6708 109.957 67.9677C110.403 68.3722 110.829 68.7983 111.233 69.2443C111.53 69.5716 111.505 70.0775 111.178 70.3743C110.851 70.6711 110.345 70.6464 110.048 70.3191C109.678 69.9117 109.289 69.5224 108.882 69.1529C108.554 68.8561 108.53 68.3501 108.827 68.0228ZM86.3729 68.0228C86.6697 68.3501 86.645 68.8561 86.3177 69.1529C85.9102 69.5224 85.5209 69.9117 85.1514 70.3191C84.8546 70.6464 84.3487 70.6711 84.0214 70.3743C83.6941 70.0775 83.6694 69.5716 83.9662 69.2443C84.3707 68.7983 84.7968 68.3722 85.2428 67.9677C85.5701 67.6709 86.0761 67.6956 86.3729 68.0228ZM113.171 73.3515C113.57 73.1624 114.047 73.3327 114.237 73.732C114.493 74.2741 114.725 74.8308 114.929 75.4005C115.077 75.8165 114.861 76.2744 114.445 76.4233C114.029 76.5722 113.571 76.3556 113.422 75.9396C113.236 75.4198 113.025 74.9118 112.791 74.417C112.602 74.0177 112.772 73.5407 113.171 73.3515ZM82.0283 73.3515C82.4275 73.5407 82.5979 74.0177 82.4087 74.417C82.1743 74.9118 81.9633 75.4198 81.7773 75.9396C81.6285 76.3556 81.1705 76.5722 80.7545 76.4233C80.3386 76.2744 80.122 75.8165 80.2709 75.4005C80.4748 74.8308 80.7059 74.2741 80.9628 73.732C81.152 73.3327 81.629 73.1624 82.0283 73.3515ZM115.14 79.9382C115.582 79.9168 115.957 80.2573 115.978 80.6986C115.992 80.9977 116 81.2986 116 81.6012C116 81.9037 115.992 82.2046 115.978 82.5037C115.957 82.9451 115.582 83.2855 115.14 83.2642C114.699 83.2429 114.358 82.8678 114.38 82.4265C114.393 82.1531 114.4 81.878 114.4 81.6012C114.4 81.3244 114.393 81.0492 114.38 80.7758C114.358 80.3345 114.699 79.9595 115.14 79.9382ZM80.0592 79.9382C80.5005 79.9595 80.8409 80.3345 80.8196 80.7758C80.8064 81.0492 80.7997 81.3244 80.7997 81.6012C80.7997 81.878 80.8064 82.1531 80.8196 82.4265C80.8409 82.8678 80.5005 83.2429 80.0592 83.2642C79.6179 83.2855 79.2428 82.9451 79.2215 82.5037C79.207 82.2046 79.1997 81.9037 79.1997 81.6012C79.1997 81.2986 79.207 80.9977 79.2215 80.6986C79.2428 80.2573 79.6179 79.9168 80.0592 79.9382ZM114.445 86.7791C114.861 86.9279 115.077 87.3858 114.929 87.8018C114.725 88.3716 114.493 88.9283 114.237 89.4704C114.047 89.8697 113.57 90.04 113.171 89.8508C112.772 89.6616 112.602 89.1846 112.791 88.7853C113.025 88.2906 113.236 87.7825 113.422 87.2627C113.571 86.8467 114.029 86.6302 114.445 86.7791ZM80.7545 86.7791C81.1705 86.6302 81.6285 86.8467 81.7773 87.2627C81.9633 87.7825 82.1743 88.2906 82.4087 88.7853C82.5979 89.1846 82.4275 89.6616 82.0283 89.8508C81.629 90.04 81.152 89.8697 80.9628 89.4704C80.7059 88.9283 80.4748 88.3716 80.2709 87.8018C80.122 87.3858 80.3386 86.9279 80.7545 86.7791ZM84.0214 92.828C84.3487 92.5312 84.8546 92.5559 85.1514 92.8832C85.5209 93.2907 85.9102 93.6799 86.3177 94.0495C86.645 94.3463 86.6697 94.8522 86.3729 95.1795C86.0761 95.5068 85.5701 95.5315 85.2428 95.2347C84.7968 94.8302 84.3707 94.4041 83.9662 93.958C83.6694 93.6308 83.6941 93.1248 84.0214 92.828ZM111.178 92.828C111.505 93.1248 111.53 93.6308 111.233 93.958C110.829 94.4041 110.403 94.8302 109.957 95.2347C109.629 95.5315 109.123 95.5068 108.827 95.1795C108.53 94.8522 108.554 94.3463 108.882 94.0495C109.289 93.6799 109.678 93.2907 110.048 92.8832C110.345 92.5559 110.851 92.5312 111.178 92.828ZM89.3501 97.1726C89.5392 96.7733 90.0163 96.603 90.4156 96.7922C90.9103 97.0266 91.4183 97.2375 91.9382 97.4236C92.3541 97.5724 92.5707 98.0303 92.4218 98.4463C92.273 98.8623 91.815 99.0789 91.3991 98.93C90.8293 98.7261 90.2726 98.495 89.7305 98.2381C89.3312 98.0489 89.1609 97.5719 89.3501 97.1726ZM105.849 97.1726C106.039 97.5719 105.868 98.0489 105.469 98.2381C104.927 98.495 104.37 98.7261 103.8 98.93C103.384 99.0789 102.926 98.8623 102.778 98.4463C102.629 98.0303 102.845 97.5724 103.261 97.4236C103.781 97.2375 104.289 97.0266 104.784 96.7922C105.183 96.603 105.66 96.7733 105.849 97.1726ZM95.9367 99.1417C95.958 98.7004 96.3331 98.3599 96.7744 98.3813C97.0478 98.3945 97.3229 98.4012 97.5997 98.4012C97.8765 98.4012 98.1516 98.3945 98.425 98.3813C98.8663 98.3599 99.2414 98.7004 99.2627 99.1417C99.2841 99.583 98.9436 99.9581 98.5023 99.9794C98.2032 99.9939 97.9023 100.001 97.5997 100.001C97.2971 100.001 96.9962 99.9939 96.6971 99.9794C96.2558 99.9581 95.9154 99.583 95.9367 99.1417Z" fill="#2D34CE"></path><path d="M98.3999 75.2004C98.3999 74.7586 98.0417 74.4004 97.5999 74.4004C97.1581 74.4004 96.7999 74.7586 96.7999 75.2004V80.8004H91.1999C90.7581 80.8004 90.3999 81.1586 90.3999 81.6004C90.3999 82.0422 90.7581 82.4004 91.1999 82.4004H96.7999V88.0004C96.7999 88.4422 97.1581 88.8004 97.5999 88.8004C98.0417 88.8004 98.3999 88.4422 98.3999 88.0004V82.4004H104C104.442 82.4004 104.8 82.0422 104.8 81.6004C104.8 81.1586 104.442 80.8004 104 80.8004H98.3999V75.2004Z" fill="#2D34CE"></path></svg>